<?xml version="1.0" encoding="UTF-8" standalone="no"?>
<!DOCTYPE svg PUBLIC "-//W3C//DTD SVG 1.1//EN"
 "http://www.w3.org/Graphics/SVG/1.1/DTD/svg11.dtd">
<!-- Generated by graphviz version 2.28.0 (20110507.0327)
 -->
<!-- Title: G Pages: 1 -->
<svg width="214pt" height="474pt"
 viewBox="0.00 0.00 214.00 474.00" xmlns="http://www.w3.org/2000/svg" xmlns:xlink="http://www.w3.org/1999/xlink">
<g id="graph1" class="graph" transform="scale(1 1) rotate(0) translate(4 470)">
<title>G</title>
<polygon fill="white" stroke="white" points="-4,5 -4,-470 211,-470 211,5 -4,5"/>
<g id="graph2" class="cluster"><title>cluster_global</title>
<polyline fill="none" stroke="gray" points="20,-8 186,-8 "/>
<path fill="none" stroke="gray" d="M186,-8C192,-8 198,-14 198,-20"/>
<polyline fill="none" stroke="gray" points="198,-20 198,-446 "/>
<path fill="none" stroke="gray" d="M198,-446C198,-452 192,-458 186,-458"/>
<polyline fill="none" stroke="gray" points="186,-458 20,-458 "/>
<path fill="none" stroke="gray" d="M20,-458C14,-458 8,-452 8,-446"/>
<polyline fill="none" stroke="gray" points="8,-446 8,-20 "/>
<path fill="none" stroke="gray" d="M8,-20C8,-14 14,-8 20,-8"/>
<text text-anchor="middle" x="103" y="-445.2" font-family="Times New Roman,serif" font-size="11.00" fill="gray">global</text>
</g>
<!-- \\SdmxCodelistInstance -->
<g id="node2" class="node"><title>\\SdmxCodelistInstance</title>
<a xlink:href="SdmxCodelist.html" xlink:title="SdmxCodelistInstance" target="_parent">
<polygon fill="none" stroke="black" points="179,-430 27,-430 27,-394 179,-394 179,-430"/>
<text text-anchor="middle" x="103" y="-409.2" font-family="Courier,monospace" font-size="11.00">SdmxCodelistInstance</text>
</a>
</g>
<!-- \\SdmxCodelist -->
<g id="node3" class="node"><title>\\SdmxCodelist</title>
<a xlink:href="SdmxCodelist.html" xlink:title="SdmxCodelist" target="_parent">
<polygon fill="none" stroke="black" points="152,-376 54,-376 54,-340 152,-340 152,-376"/>
<text text-anchor="middle" x="103" y="-355.2" font-family="Courier,monospace" font-size="11.00">SdmxCodelist</text>
</a>
</g>
<!-- \\SdmxPredefinedCodelists -->
<g id="node4" class="node"><title>\\SdmxPredefinedCodelists</title>
<a xlink:href="SdmxCodelist.html" xlink:title="«abstract»&lt;br/&gt;SdmxPredefinedCodelists" target="_parent">
<polygon fill="none" stroke="black" points="189.5,-322 16.5,-322 16.5,-286 189.5,-286 189.5,-322"/>
<text text-anchor="start" x="69" y="-307.7" font-family="Courier,monospace" font-size="11.00">«abstract»</text>
<text text-anchor="start" x="25" y="-296.7" font-family="Courier,monospace" font-size="11.00">SdmxPredefinedCodelists</text>
</a>
</g>
<!-- \\SdmxData -->
<g id="node5" class="node"><title>\\SdmxData</title>
<a xlink:href="SdmxData.html" xlink:title="SdmxData" target="_parent">
<polygon fill="none" stroke="black" points="138.5,-268 67.5,-268 67.5,-232 138.5,-232 138.5,-268"/>
<text text-anchor="middle" x="103" y="-247.2" font-family="Courier,monospace" font-size="11.00">SdmxData</text>
</a>
</g>
<!-- \\SdmxDataPoint -->
<g id="node6" class="node"><title>\\SdmxDataPoint</title>
<a xlink:href="SdmxDataPoint.html" xlink:title="SdmxDataPoint" target="_parent">
<polygon fill="none" stroke="black" points="155,-214 51,-214 51,-178 155,-178 155,-214"/>
<text text-anchor="middle" x="103" y="-193.2" font-family="Courier,monospace" font-size="11.00">SdmxDataPoint</text>
</a>
</g>
<!-- \\SdmxDimension -->
<g id="node7" class="node"><title>\\SdmxDimension</title>
<a xlink:href="SdmxDimension.html" xlink:title="SdmxDimension" target="_parent">
<polygon fill="none" stroke="black" points="155,-160 51,-160 51,-124 155,-124 155,-160"/>
<text text-anchor="middle" x="103" y="-139.2" font-family="Courier,monospace" font-size="11.00">SdmxDimension</text>
</a>
</g>
<!-- \\XmlTagInArray -->
<g id="node8" class="node"><title>\\XmlTagInArray</title>
<a xlink:href="XmlParseUtils.html" xlink:title="XmlTagInArray" target="_parent">
<polygon fill="none" stroke="black" points="155,-106 51,-106 51,-70 155,-70 155,-106"/>
<text text-anchor="middle" x="103" y="-85.2" font-family="Courier,monospace" font-size="11.00">XmlTagInArray</text>
</a>
</g>
<!-- \\XmlDataArray -->
<g id="node9" class="node"><title>\\XmlDataArray</title>
<a xlink:href="XmlParseUtils.html" xlink:title="XmlDataArray" target="_parent">
<polygon fill="none" stroke="black" points="152,-52 54,-52 54,-16 152,-16 152,-52"/>
<text text-anchor="middle" x="103" y="-31.2" font-family="Courier,monospace" font-size="11.00">XmlDataArray</text>
</a>
</g>
</g>
</svg>
